<svg preserveAspectRatio="none" data-bbox="0 0 200 200" xmlns="http://www.w3.org/2000/svg" viewBox="0 0 200 200" role="presentation" aria-hidden="true">
    <g>
        <path d="M148.8 116.3l15.5-2.7-8.5-49.8-15.5 2.7 1.2 6.9-17.3 1.8c-6-3.9-19.2-12.1-21.9-12.1-1.1 0-3.8 1.3-7 2.9-1-.5-6-2.6-8.2-2.6-2 0-10.2 5.6-16.8 10.5l-12-1.5 1-5.9-15.5-2.7-8.5 49.8 15.5 2.7 1.5-8.5c1.5.4 2.9 1 4.5 1.6 2.5 1.1 5.3 2.2 9 2.7l-2.1 3.9c-1.9 3.7-.4 8.3 3.4 10.2l23.4 11.6c1.1.5 2.2.8 3.4.8 2.8 0 5.4-1.5 6.8-4.2l5.1-10.2 8.9 5.4c1.2.7 2.6 1.1 3.9 1.1 2.6 0 5-1.3 6.5-3.6l10.5-17 12-2 1.2 8.2zm4.5-48.9l7.5 43.7-9.5 1.6-7.5-43.7 9.5-1.6zM38.8 111.1l7.5-43.7 9.5 1.6-7.5 43.7-9.5-1.6zm27.5 6.4l2.7-5c2 .2 4.4.4 6.8.7l-6.4 10.9-1.1-.5c-2.1-1.2-3-3.9-2-6.1zm24.3-2.3l4.2 2.6-8.7 14.6-6.5-3.2 8.6-14.3c1.1.1 2 .2 2.4.3zm-13.8 12.5l-4.6-2.3 7-11.8c2 .3 4 .5 5.7.7l-8.1 13.4zm21 5.4c-1.1 2.2-3.8 3.1-6 2l-2.9-1.4 8.6-14.3 5.5 3.4-5.2 10.3zm24.5-7.5c-1.3 2.1-4.1 2.8-6.2 1.5l-24.4-14.9h-.3c-.2 0-1.9-.3-4.4-.6l-.3-.2-.1.1c-5.1-.7-13.1-1.8-18.3-2.1-4.4-.3-7.4-1.5-10.4-2.8-1.7-.7-3.4-1.4-5.2-1.9l5-29.3 13.4 1.7.5-.4c6.4-4.7 14.2-10 15.5-10.3.8 0 2.9.7 4.8 1.5-3.3 1.9-6.6 3.9-8.7 5.2l-.5.3-.2.6c-.1.3-2.3 8.2-3.1 13.3-.5 3.3-.8 6.3.6 8.2.8 1.1 2 1.7 3.7 1.9 2.9.4 7.7 1 8.5-3.8.4-2.5 2.3-9.8 2.8-12.1l6.5-3.3 32.8 18.9c2.1 1.3 2.8 4.1 1.5 6.2l-1.2 1.9-21.1-12.7-1.6 2.6 21.1 12.7-3.1 5-21-12.6-1.6 2.6 21 12.6-3.1 5-20.9-12.6-1.6 2.6 20.9 12.6-1.3 2.6zm15.2-18.9l1.1-1.7c2.2-3.6 1-8.2-2.6-10.4l-34.3-19.8-9.2 4.7-.2.7c-.1.4-2.5 10-3.1 13-.2 1.2-.5 1.9-5.1 1.3-1.2-.2-1.6-.6-1.7-.7-.7-1-.4-3.5-.1-5.9.6-4.1 2.3-10.5 2.8-12.4 7.1-4.4 15.4-9.2 16.8-9.3 1.7.2 11.9 6.2 20.7 11.9l.5.3 18.6-1.9 4.9 28.7-9.1 1.5z"/>
        <path d="M100 200C44.9 200 0 155.1 0 100S44.9 0 100 0s100 44.9 100 100-44.9 100-100 100zm0-196.9C46.6 3.1 3.1 46.6 3.1 100s43.5 96.9 96.9 96.9 96.9-43.5 96.9-96.9S153.4 3.1 100 3.1z"/>
    </g>
</svg>