<svg preserveAspectRatio="none" data-bbox="0 0 200 200" xmlns="http://www.w3.org/2000/svg" viewBox="0 0 200 200" role="presentation" aria-hidden="true">
    <g>
        <path d="M135.4 73h-20.1v-2.2c0-4.7-3.9-8.6-8.6-8.6H93.3c-4.7 0-8.6 3.9-8.6 8.6V73H64.6c-4.6 0-8.4 3.8-8.4 8.4v19l1.1.3c.1 0 1.4.4 3.6 1.1v28.5c0 4.6 3.8 8.4 8.4 8.4h61.3c4.6 0 8.4-3.8 8.4-8.4v-28.5c2.2-.6 3.6-1.1 3.6-1.1l1.1-.3v-19c.1-4.6-3.7-8.4-8.3-8.4zm-47.6-2.2c0-3 2.5-5.5 5.5-5.5h13.4c3 0 5.5 2.5 5.5 5.5V73H87.8v-2.2zm48.2 59.6c0 2.9-2.4 5.3-5.3 5.3H69.3c-2.9 0-5.3-2.4-5.3-5.3v-27.7c6.8 1.9 17.5 4.8 26.1 6.4v1.7c0 2.6 2.1 4.7 4.7 4.7h10.4c2.6 0 4.7-2.1 4.7-4.7v-1.7c8.6-1.6 19.3-4.5 26.1-6.4v27.7zm-42.8-19.6v-6.4c0-.9.7-1.6 1.6-1.6h10.4c.9 0 1.6.7 1.6 1.6v6.4c0 .9-.7 1.6-1.6 1.6H94.8c-.9.1-1.6-.7-1.6-1.6zm47.5-12.6c-4.1 1.2-19.3 5.7-30.8 7.8v-1.5c0-2.6-2.1-4.7-4.7-4.7H94.8c-2.6 0-4.7 2.1-4.7 4.7v1.5c-11.5-2.2-26.7-6.6-30.8-7.8V81.4c0-2.9 2.4-5.3 5.3-5.3h70.7c2.9 0 5.3 2.4 5.3 5.3v16.8z"/>
        <path d="M100 200C44.9 200 0 155.1 0 100S44.9 0 100 0s100 44.9 100 100-44.9 100-100 100zm0-196.9C46.6 3.1 3.1 46.6 3.1 100s43.5 96.9 96.9 96.9 96.9-43.5 96.9-96.9S153.4 3.1 100 3.1z"/>
    </g>
</svg>