<svg preserveAspectRatio="none" data-bbox="0 0 200 200" xmlns="http://www.w3.org/2000/svg" viewBox="0 0 200 200" role="presentation" aria-hidden="true">
    <g>
        <path d="M100.4 58.3c-10.8 0-19.6 8.8-19.6 19.6s8.8 19.6 19.6 19.6S120 88.7 120 77.9s-8.8-19.6-19.6-19.6zm0 36.2c-9.1 0-16.5-7.4-16.5-16.5s7.4-16.5 16.5-16.5 16.5 7.4 16.5 16.5c0 9-7.4 16.5-16.5 16.5z"/>
        <path d="M70.8 143.1h3V98.5h9.3v-3.1H70.8v47.7z"/>
        <path d="M116.9 95.4v3.1h9.3v44.6h3V95.4h-12.3z"/>
        <path d="M100 200C44.9 200 0 155.1 0 100S44.9 0 100 0s100 44.9 100 100-44.9 100-100 100zm0-196.9C46.6 3.1 3.1 46.6 3.1 100s43.5 96.9 96.9 96.9 96.9-43.5 96.9-96.9S153.4 3.1 100 3.1z"/>
    </g>
</svg>